<svg version="1.1" id="Layer_1" xmlns="http://www.w3.org/2000/svg" xmlns:xlink="http://www.w3.org/1999/xlink" x="0px" y="0px"
	 width="100%" viewBox="0 0 8000 4000" enable-background="new 0 0 8000 4000" xml:space="preserve">
<path fill="#000000" opacity="1.000000" stroke="none" 
	d="
M8004.000000,1340.000000 
	C8004.000000,1782.754761 8004.000000,2225.509521 8002.209473,2670.144043 
	C7332.525391,2672.012939 6664.631348,2671.993408 5996.737793,2671.991943 
	C4008.387695,2671.987061 2020.037720,2671.988525 31.687723,2672.019775 
	C25.041821,2672.019775 18.395926,2672.488281 11.890080,2672.371582 
	C12.030132,2672.005127 12.326191,2671.278809 12.231685,2669.462646 
	C12.092046,2658.985352 12.008262,2650.324219 12.007435,2641.663086 
	C11.987149,2429.120605 11.975655,2216.578125 11.970634,2002.157471 
	C11.996652,1780.182617 12.014627,1560.085938 13.855274,1339.616943 
	C23.676117,1339.201050 31.674292,1339.119995 39.672466,1339.119873 
	C710.204895,1339.114014 1380.737305,1339.114136 2051.269775,1339.114624 
	C4026.874268,1339.116089 6002.479004,1339.116821 7978.083496,1339.155762 
	C7986.722168,1339.156006 7995.361328,1339.706543 8004.000000,1340.000000 
z"/>
<path fill="#980000" opacity="1.000000" stroke="none" 
	d="
M11.750027,2672.737793 
	C18.395926,2672.488281 25.041821,2672.019775 31.687723,2672.019775 
	C2020.037720,2671.988525 4008.387695,2671.987061 5996.737793,2671.991943 
	C6664.631348,2671.993408 7332.525391,2672.012939 8002.209473,2672.012207 
	C8004.000000,3115.924805 8004.000000,3559.849365 8004.000000,4004.000000 
	C5341.193848,4004.000000 2678.387451,4004.000000 13.783031,4002.125488 
	C11.983049,3567.075195 11.982515,3133.899902 11.969573,2700.724365 
	C11.969295,2691.395508 11.826393,2682.066650 11.750027,2672.737793 
z"/>
<path fill="#FFAB40" opacity="1.000000" stroke="none" 
	d="
M8004.000000,1338.144531 
	C7995.361328,1339.706543 7986.722168,1339.156006 7978.083496,1339.155762 
	C6002.479004,1339.116821 4026.874268,1339.116089 2051.269775,1339.114624 
	C1380.737305,1339.114136 710.204895,1339.114014 39.672466,1339.119873 
	C31.674292,1339.119995 23.676117,1339.201050 12.949973,1339.115723 
	C9.567892,1338.768799 8.913780,1338.550537 8.164160,1336.563599 
	C7.944334,1327.471924 7.711518,1320.148804 7.711221,1312.825684 
	C7.693854,883.874939 7.694180,454.924133 7.708377,25.973379 
	C7.708620,18.648916 7.898571,11.324460 8.000000,4.000000 
	C2673.333252,4.000000 5338.666504,4.000000 8004.000000,4.000000 
	C8004.000000,448.453003 8004.000000,892.370972 8004.000000,1338.144531 
M543.546387,369.532349 
	C523.637329,399.210541 508.956879,430.922913 504.900665,470.128540 
	C509.785004,463.983185 513.008667,460.137146 516.001099,456.118896 
	C522.361328,447.578094 528.121155,438.533722 535.052856,430.493896 
	C540.003174,424.752228 545.763184,416.111023 554.649963,421.154388 
	C561.933594,425.287994 559.379822,434.318085 558.213013,441.438995 
	C555.627502,457.218231 552.585388,472.922424 549.759521,488.662598 
	C544.322632,518.947083 541.520447,549.428711 543.657776,580.198792 
	C545.048706,600.224182 548.767212,619.837341 555.964539,638.651978 
	C557.273621,642.073975 558.133545,646.607422 564.975342,645.868408 
	C565.940491,642.722351 567.694946,639.157288 568.043091,635.459778 
	C569.042175,624.849487 569.370117,614.178101 570.158997,603.545349 
	C570.750061,595.578430 571.455750,587.608948 572.499878,579.691956 
	C572.925476,576.464294 574.263550,573.262146 579.866516,573.055786 
	C581.792419,575.496155 584.717712,578.216370 586.441040,581.556641 
	C594.070374,596.344849 601.520752,611.231262 608.725708,626.231140 
	C620.545532,650.838684 631.651428,675.800659 643.944946,700.165894 
	C655.215637,722.503906 671.410522,741.035645 691.750610,755.748779 
	C694.830872,757.976868 698.451721,759.457581 704.096008,762.515869 
	C702.896301,757.226074 702.767334,753.968872 701.449585,751.298218 
	C694.673645,737.565735 687.314453,724.116882 680.706909,710.306763 
	C675.549316,699.527039 671.013611,688.435120 666.609558,677.320190 
	C665.538147,674.616089 666.070496,671.276489 665.836365,667.796631 
	C675.154724,665.215881 683.000671,667.531067 690.442932,669.690857 
	C734.680847,682.528870 777.435669,699.214783 818.393860,720.378540 
	C832.199524,727.512207 843.752686,737.194580 853.596924,749.355225 
	C868.759583,768.085876 881.667236,788.215942 893.451477,809.154541 
	C897.696960,816.698181 902.057129,824.193237 906.759888,831.454773 
	C908.395691,833.980469 911.221741,835.735291 915.759033,839.923706 
	C914.621094,832.988831 914.360657,829.055359 913.301941,825.349915 
	C908.363770,808.066467 902.954651,790.914551 898.216675,773.578186 
	C895.240356,762.687561 892.833374,751.610901 890.851013,740.496521 
	C890.213257,736.920837 891.745789,732.958069 892.453247,727.995117 
	C897.871216,728.721313 902.848877,728.241699 906.629517,730.142700 
	C913.698975,733.697327 920.494873,738.113342 926.652222,743.099915 
	C940.261475,754.121460 950.559937,768.033997 959.742981,782.867310 
	C964.634399,790.768433 969.999512,798.399658 975.567993,805.840515 
	C976.824585,807.519653 979.817627,807.899170 982.030396,808.885498 
	C985.676392,801.862976 983.151611,796.205444 981.517944,790.577942 
	C978.918152,781.622803 975.812866,772.806030 973.465088,763.789062 
	C971.856934,757.612549 970.120728,751.116455 973.812378,745.144348 
	C981.408508,744.537842 986.015869,748.577209 990.610413,752.315247 
	C1001.638123,761.287048 1010.299744,772.073181 1015.806824,785.349976 
	C1016.874817,787.924805 1019.468872,789.866577 1021.470520,792.232117 
	C1026.916870,786.346802 1031.138916,781.179443 1036.000977,776.708130 
	C1040.487061,772.582642 1046.283081,772.734741 1050.196045,777.464905 
	C1054.815552,783.049194 1059.270508,789.076782 1062.315430,795.603394 
	C1075.320679,823.478821 1079.900391,852.957520 1075.488403,883.344727 
	C1070.389404,918.463623 1051.412476,943.471375 1017.901184,956.402710 
	C1009.248169,959.741760 1000.167114,962.120056 991.122803,964.265808 
	C972.150879,968.766968 952.779480,968.511719 933.429565,968.433228 
	C891.696716,968.263733 853.265869,956.914856 817.851990,934.936462 
	C793.998718,920.132751 771.548828,903.409119 750.670532,884.716003 
	C713.925903,851.817017 677.680969,818.360657 641.064819,785.317200 
	C622.758484,768.797058 604.546082,752.118652 585.438293,736.559204 
	C572.055298,725.661438 557.545532,716.037659 542.950745,706.771362 
	C530.508606,698.871704 516.650696,693.567993 501.877350,692.049072 
	C473.069702,689.087280 444.584717,691.292175 416.917664,700.186218 
	C385.178284,710.389282 362.868561,730.983459 350.991821,762.333435 
	C348.169647,769.782959 345.618805,777.426270 343.917328,785.193848 
	C335.399902,824.077698 335.513855,863.282898 341.099121,902.480469 
	C343.471771,919.131775 349.627136,934.733582 359.378967,948.562134 
	C390.796936,993.113892 429.429657,1028.781616 482.067261,1046.884521 
	C491.512573,1050.132935 500.954254,1053.467529 510.576202,1056.112915 
	C540.113708,1064.233765 569.858643,1071.619873 599.289062,1080.103271 
	C621.661377,1086.552124 643.781921,1093.935425 665.787842,1101.557495 
	C672.580017,1103.910156 678.729126,1108.249146 684.933655,1112.066772 
	C686.288269,1112.900269 687.653259,1115.764771 687.194824,1117.040405 
	C686.409180,1119.226440 684.530273,1121.874390 682.501160,1122.582397 
	C678.153137,1124.099365 673.447815,1124.963135 668.833252,1125.276367 
	C654.874573,1126.223145 640.861877,1126.446533 626.923950,1127.600830 
	C617.028198,1128.420288 607.183350,1130.089722 597.400635,1131.851196 
	C595.308716,1132.227905 593.583008,1134.638672 591.369812,1136.360352 
	C598.048889,1145.022949 607.430176,1145.015137 615.437988,1146.905273 
	C638.274719,1152.295166 659.994873,1160.484741 681.180176,1170.345459 
	C714.516113,1185.861694 745.714417,1204.994995 775.743164,1226.116943 
	C807.356201,1248.353149 838.788757,1270.854126 870.698303,1292.656616 
	C882.196228,1300.512695 894.723816,1306.916138 907.066895,1313.442749 
	C910.125488,1315.059937 914.296997,1314.572266 919.068420,1315.197754 
	C916.268860,1301.885986 908.136780,1293.709106 900.957336,1285.185181 
	C874.728210,1254.044189 851.168274,1220.945923 827.861450,1187.615356 
	C810.682617,1163.048462 793.207520,1138.649170 774.888428,1114.928833 
	C751.628662,1084.811279 726.200317,1056.559082 696.408813,1032.617188 
	C689.169983,1026.799805 681.345154,1021.639526 673.396301,1016.827026 
	C671.336487,1015.579895 667.789856,1016.788757 662.891113,1016.926819 
	C667.679260,1025.854736 671.532471,1032.773926 675.129272,1039.823730 
	C678.443359,1046.319336 681.842407,1052.816528 684.459717,1059.600098 
	C685.468506,1062.214478 684.424622,1065.620850 684.335449,1068.117920 
	C681.598083,1069.003418 680.307678,1069.877930 679.165527,1069.714722 
	C672.586670,1068.774780 665.899292,1068.123291 659.509949,1066.403320 
	C602.810852,1051.141113 547.043823,1032.927002 494.044220,1007.550232 
	C435.419189,979.480103 403.009308,931.202576 393.397400,867.666809 
	C389.094543,839.224548 393.636169,811.661438 410.217926,787.305359 
	C430.243896,757.890381 461.259033,743.719543 499.051880,754.836365 
	C521.213379,761.355164 540.795959,772.461609 557.388550,788.413879 
	C587.653992,817.511230 618.257629,846.306519 647.434570,876.471375 
	C672.895569,902.794556 696.653809,930.769897 721.003662,958.158264 
	C725.788696,963.540344 730.936584,968.974670 731.700439,975.755249 
	C728.461243,986.175415 717.212585,981.450256 710.822754,987.854980 
	C714.465393,990.848755 716.633606,993.406250 719.392456,994.759521 
	C729.550415,999.742310 739.724731,1004.775146 750.220886,1008.967896 
	C773.106445,1018.109497 796.263062,1026.571289 819.172913,1035.653809 
	C834.022034,1041.540771 848.756836,1047.758301 863.281738,1054.398804 
	C868.629639,1056.843750 873.528687,1060.569092 878.073914,1064.377197 
	C881.739441,1067.448242 881.862549,1073.705811 878.211792,1076.955688 
	C872.780029,1081.791016 866.760376,1085.994995 860.805603,1090.205444 
	C855.111023,1094.231812 848.246643,1096.685303 843.051575,1101.889038 
	C844.506958,1103.253662 844.913940,1103.971069 845.325500,1103.973633 
	C889.746521,1104.255005 933.022034,1098.642212 973.594788,1079.052246 
	C992.792419,1069.782959 1012.049866,1060.637573 1031.289307,1051.454956 
	C1043.912720,1045.429932 1056.466309,1039.244873 1069.244995,1033.568115 
	C1072.460083,1032.139893 1076.419678,1032.387451 1081.725342,1031.620972 
	C1081.725342,1037.751099 1082.377319,1042.394287 1081.610107,1046.789795 
	C1078.637085,1063.822876 1075.132324,1080.762573 1072.037842,1097.775635 
	C1071.550903,1100.452759 1068.429443,1103.744873 1073.466431,1106.588745 
	C1079.553223,1101.587769 1085.030518,1095.998291 1088.746094,1088.840088 
	C1092.734375,1081.156616 1096.898926,1073.542847 1100.446777,1065.655884 
	C1120.157593,1021.837158 1136.575562,976.826477 1148.994873,930.380798 
	C1151.058350,922.663513 1153.035767,914.863953 1155.956543,907.458801 
	C1157.524536,903.483276 1161.014893,900.265930 1163.973633,896.250854 
	C1183.196533,905.347412 1182.019409,926.876221 1195.166870,943.199524 
	C1195.279053,934.348938 1195.638306,929.283875 1195.352783,924.255432 
	C1194.408813,907.621155 1193.091064,891.007874 1192.177490,874.372192 
	C1190.772095,848.776123 1185.173584,824.128113 1173.831909,801.190430 
	C1164.696289,782.714600 1155.066772,764.331604 1143.907349,747.036072 
	C1110.363892,695.048218 1063.023193,661.335022 1003.772888,643.894165 
	C976.171997,635.769714 947.847778,631.854919 919.485474,627.864929 
	C903.010254,625.547241 886.616211,622.625732 870.234314,619.703125 
	C867.961548,619.297729 865.968933,617.322021 862.817871,615.467957 
	C865.335693,612.662964 866.638672,610.008972 868.689392,609.159119 
	C874.183044,606.882385 879.885315,604.447205 885.705505,603.749329 
	C900.881165,601.929565 916.153259,600.847534 931.408508,599.781616 
	C941.145020,599.101257 950.926636,598.999268 960.291077,593.643005 
	C956.909363,583.123108 949.461365,577.305420 942.588440,571.317932 
	C923.426025,554.624390 902.399597,540.574463 880.144958,528.304688 
	C870.821167,523.164124 861.405640,518.042969 852.728760,511.924652 
	C846.284180,507.380402 840.716431,501.478088 835.233582,495.727386 
	C831.929077,492.261383 830.353516,487.777893 833.359985,481.652252 
	C837.600525,480.689636 842.723328,479.763184 847.702576,478.335999 
	C853.786011,476.592346 855.471252,470.399109 851.124695,465.804413 
	C848.860229,463.410675 846.197449,461.326355 843.474243,459.451294 
	C840.188965,457.189178 836.576782,455.406982 833.236511,453.217987 
	C828.797485,450.308868 823.065491,447.346802 824.821838,441.103912 
	C826.538147,435.003540 833.157349,435.362061 838.307312,434.553955 
	C842.245911,433.935974 846.299377,434.063568 850.247070,433.485840 
	C853.249451,433.046448 856.165955,432.019989 860.841125,430.809082 
	C851.271423,420.791260 841.113342,416.553284 829.432617,416.146149 
	C821.466064,415.868469 813.463196,416.542328 805.479858,416.870514 
	C800.830383,417.061584 796.163635,417.843536 791.546936,417.590210 
	C783.831299,417.166840 779.626648,409.374298 784.243408,403.266388 
	C787.732849,398.649994 792.578308,394.815765 797.435669,391.548279 
	C801.800659,388.611938 807.180969,387.226349 811.766907,384.560608 
	C814.276855,383.101593 816.069092,380.408020 818.583740,377.868439 
	C806.545288,367.563049 794.602478,367.955292 782.295715,373.815674 
	C771.721497,378.851105 763.913818,387.043640 758.386353,397.210999 
	C754.901550,403.620941 751.561218,410.268433 749.381714,417.194977 
	C745.225830,430.402466 737.587280,437.495605 723.013733,435.978455 
	C718.723877,435.531860 713.571350,434.427643 710.480835,439.051208 
	C710.480835,440.604309 709.989502,442.203766 710.577637,443.071686 
	C712.044922,445.236877 713.654541,447.669312 715.825256,448.930054 
	C724.441406,453.934387 733.034912,459.113037 742.112000,463.161407 
	C763.142761,472.540985 781.567688,485.470581 796.859131,502.566345 
	C802.558289,508.937927 807.019836,516.483887 811.542358,523.805298 
	C813.217590,526.517212 813.665405,530.159241 808.737915,533.468689 
	C802.250671,531.126526 794.693420,528.785522 787.462708,525.683472 
	C779.514221,522.273499 771.872070,518.151184 764.086304,514.360046 
	C747.631775,506.347870 730.500183,501.702026 711.962280,503.349426 
	C706.673462,503.819458 701.287170,503.761688 695.984314,503.391266 
	C682.815552,502.471375 673.347656,495.753906 668.235291,483.679352 
	C665.394043,476.968781 662.716553,469.916809 661.675781,462.769623 
	C659.087524,444.996582 657.453369,427.083618 655.487976,409.221161 
	C654.067200,396.308105 659.030334,387.236969 671.542847,382.687805 
	C673.400818,382.012299 675.079041,380.833649 676.825317,379.860687 
	C685.574524,374.985992 690.873230,367.802460 691.668335,357.618225 
	C691.927734,354.295837 691.969177,350.940613 692.474487,347.656403 
	C693.634766,340.115112 697.064880,336.696228 704.602112,338.137024 
	C719.110107,340.910400 730.852417,336.770844 740.925598,326.516266 
	C741.855774,325.569275 742.953979,324.788391 743.963074,323.917633 
	C749.515381,319.126404 755.992310,317.805634 762.637085,320.449707 
	C776.122498,325.815826 789.869080,326.002716 803.948669,324.076508 
	C812.721252,322.876343 820.737366,324.095062 828.573059,329.482727 
	C833.773193,333.058258 840.786072,335.011017 847.188782,335.639740 
	C868.982910,337.779785 885.915588,349.031555 901.406616,363.124969 
	C904.624573,366.052582 906.517761,370.436340 909.537903,374.914764 
	C898.175171,383.765961 901.506042,395.364227 903.012939,407.144135 
	C897.537109,407.419739 893.223206,407.636871 888.705261,407.864288 
	C889.632080,416.151703 895.262329,420.225220 900.118286,424.550476 
	C906.077148,429.858093 912.729736,434.377869 918.855408,439.509247 
	C927.695312,446.914307 935.559509,455.187897 936.154114,467.561615 
	C936.743591,479.828247 944.001648,486.919678 954.033875,491.995544 
	C959.969788,494.998901 966.192078,497.431396 972.179016,500.340027 
	C982.951416,505.573486 994.204224,510.104065 1004.201233,516.561707 
	C1013.028137,522.263611 1021.189697,529.492432 1028.257324,537.302856 
	C1038.467407,548.586243 1040.636108,562.019592 1034.409302,576.362488 
	C1032.608765,580.510010 1030.994507,584.738464 1028.947998,589.785156 
	C1041.083130,592.947693 1050.874023,588.100159 1060.726685,584.934570 
	C1082.443970,577.956848 1094.096069,571.167969 1105.570923,559.469360 
	C1090.867554,538.704590 1074.809082,519.858398 1049.064331,511.526367 
	C1036.533813,507.471069 1027.407715,498.592346 1022.611511,485.972992 
	C1018.710205,475.708160 1024.304443,467.144958 1035.363281,466.389740 
	C1044.365967,465.774933 1052.396851,469.076691 1060.035156,473.319611 
	C1075.882202,482.122131 1089.573364,493.789154 1102.855591,505.982269 
	C1119.896606,521.626099 1132.166260,540.419556 1139.825806,562.198425 
	C1144.245117,574.764282 1148.304321,587.456177 1152.630615,600.055359 
	C1161.065186,624.619873 1169.224731,649.286804 1178.151978,673.671997 
	C1186.717773,697.070251 1199.631714,718.081665 1216.623901,736.318115 
	C1244.823486,766.582397 1275.022705,794.777466 1306.702148,821.373596 
	C1308.891602,823.211731 1311.745117,824.258911 1315.550049,826.374695 
	C1316.259766,820.233521 1314.002930,816.963501 1311.978638,813.652771 
	C1301.153076,795.946899 1288.017456,780.037964 1274.076172,764.736694 
	C1262.406250,751.928345 1250.619995,739.208862 1239.413696,726.001770 
	C1232.538330,717.898682 1226.278442,709.199036 1220.464844,700.295410 
	C1216.609009,694.389954 1210.936523,687.835693 1215.698242,680.296692 
	C1220.063110,673.386047 1227.702271,676.696533 1234.128052,676.742554 
	C1237.808350,676.768860 1242.247681,679.111084 1244.554321,672.137634 
	C1237.744629,664.936218 1230.589722,657.122253 1223.171265,649.567200 
	C1190.183228,615.972290 1164.100586,577.501831 1142.777710,535.697815 
	C1139.460205,529.193848 1136.869507,522.291870 1134.331421,515.430115 
	C1133.198730,512.367371 1132.655640,508.965546 1132.505371,505.687347 
	C1132.250000,500.117676 1136.734863,495.532227 1142.312622,495.065887 
	C1150.025757,494.420959 1157.195679,496.666687 1162.785400,501.533264 
	C1169.246460,507.158447 1174.886963,513.798645 1180.442871,520.370728 
	C1185.983032,526.924072 1189.956421,534.938599 1198.251709,538.653442 
	C1221.004272,530.329895 1244.639648,509.404602 1253.497314,489.780548 
	C1250.555054,479.091949 1241.017822,476.558685 1232.343018,473.596008 
	C1197.775024,461.790131 1172.806152,439.181580 1155.825317,407.175079 
	C1146.108276,388.859894 1134.411621,371.820801 1120.952637,356.078735 
	C1108.829712,341.899384 1096.345825,328.021027 1083.780151,314.229431 
	C1044.981445,271.645569 1011.787476,225.093979 984.808960,174.195526 
	C978.267273,161.853867 973.110107,148.784958 966.847534,136.285309 
	C964.641479,131.882034 963.841248,125.893433 956.384338,124.203613 
	C956.941772,127.937737 957.064575,131.219788 957.949158,134.281769 
	C963.123413,152.193176 968.701904,169.990494 973.680908,187.954620 
	C976.519348,198.195251 978.684631,208.639984 980.693176,219.081268 
	C981.223267,221.836899 980.046570,224.920853 979.387451,229.841080 
	C974.805115,227.276276 971.647095,226.205444 969.427124,224.130859 
	C963.596008,218.681580 957.617798,213.233932 952.694641,206.998795 
	C939.072876,189.746765 925.936646,172.110718 912.652161,154.593338 
	C902.587891,141.322281 892.688110,127.924538 882.464294,114.778290 
	C880.823425,112.668320 879.325012,108.648598 874.094788,111.334511 
	C875.589966,115.574821 876.798096,119.983376 878.658142,124.097168 
	C884.968262,138.052551 891.572083,151.874786 897.945435,165.801971 
	C905.979919,183.359009 914.024902,200.913589 921.788513,218.590805 
	C924.088806,223.828384 926.639282,229.269333 925.311096,236.907318 
	C920.873718,236.241425 916.809265,236.457520 913.511475,234.971786 
	C905.635376,231.423492 897.963318,227.342896 890.493713,222.988495 
	C876.105164,214.600616 862.125549,205.492783 847.569214,197.417374 
	C837.116760,191.618713 826.132690,186.706360 815.115479,182.036148 
	C811.148560,180.354553 806.392822,180.533829 801.400513,179.772980 
	C802.668884,189.018784 812.795044,192.889313 811.071533,203.177048 
	C808.102173,203.813507 805.004456,205.222107 802.053345,204.962799 
	C794.785034,204.324081 787.529175,203.193970 780.367859,201.763199 
	C766.653992,199.023315 753.040771,195.775909 739.315308,193.100723 
	C735.559875,192.368774 731.232605,192.127106 728.910400,198.030746 
	C730.638855,200.790115 732.895142,203.971558 734.718933,207.384094 
	C739.750183,216.798111 737.987549,222.775513 728.453064,226.404388 
	C713.226318,232.199738 697.283752,233.140732 681.188354,231.869995 
	C676.831238,231.526001 673.521423,228.792908 672.434326,224.718109 
	C666.511902,202.518616 665.877808,181.107910 683.144653,162.882126 
	C688.641113,157.080399 693.958191,151.079987 699.781372,145.622971 
	C709.341064,136.664413 720.683716,131.897110 733.982849,131.169128 
	C761.524841,129.661530 788.546570,131.873627 814.924622,140.383347 
	C821.244995,142.422302 827.705078,144.067581 834.170044,145.602646 
	C837.551270,146.405502 840.800171,145.892487 842.844543,141.690430 
	C840.872192,133.169968 834.491333,127.192772 828.496765,121.122009 
	C806.383240,98.727249 782.102295,79.051041 754.639160,63.506630 
	C697.419495,31.119680 636.445496,20.203960 571.502258,31.170034 
	C523.130310,39.337933 480.148712,59.302444 441.398041,89.022614 
	C394.614685,124.903503 353.462555,166.523407 315.723328,211.664124 
	C287.889252,244.957031 263.946930,281.082886 238.928207,316.441742 
	C197.359573,375.190460 155.639160,433.837250 113.370537,492.082764 
	C93.393417,519.610901 71.334488,545.490906 45.844849,568.280701 
	C39.428410,574.017517 33.913795,580.799011 28.288071,587.360413 
	C26.771931,589.128723 25.030621,591.779724 28.595226,594.992554 
	C30.480059,594.511353 33.181725,594.373047 35.298111,593.188843 
	C46.308258,587.028259 58.120823,581.792603 67.872391,574.004211 
	C85.020660,560.308228 101.540375,545.665466 117.146797,530.229675 
	C159.881546,487.962036 197.873367,441.531097 234.245026,393.763855 
	C268.970642,348.158447 303.105499,302.072113 341.852631,259.716339 
	C351.274261,249.417267 361.692108,240.019272 371.836304,230.401459 
	C373.539154,228.786942 376.074127,226.880539 378.627716,229.673889 
	C378.703796,230.978683 379.284119,232.511261 378.770020,233.434128 
	C374.234497,241.575287 369.905365,249.873444 364.769806,257.631805 
	C314.360352,333.785614 262.063721,408.604553 206.186615,480.878021 
	C200.482361,488.256104 194.827576,495.679047 189.403793,503.262817 
	C188.009888,505.211853 186.226166,507.803375 189.931351,511.062958 
	C200.267212,507.321320 208.881195,500.072937 216.717026,492.271179 
	C232.764557,476.293396 248.961395,460.349152 263.679596,443.176483 
	C295.773712,405.730347 326.890198,367.447968 358.588776,329.660431 
	C374.436676,310.768311 390.324371,291.884033 406.909180,273.646515 
	C414.909576,264.848877 424.385071,257.340149 433.573761,249.706558 
	C436.455536,247.312485 440.551086,245.706223 444.963135,249.656815 
	C444.963135,251.025375 445.440979,253.072418 444.873260,254.769775 
	C443.191803,259.796936 441.700104,265.039948 439.045349,269.558868 
	C432.639923,280.462311 425.933838,291.220306 418.784393,301.649933 
	C390.901276,342.325714 362.665466,382.760101 334.859467,423.488190 
	C326.606689,435.576202 319.256439,448.286560 311.692383,460.832184 
	C310.535767,462.750519 308.059143,465.091217 311.838196,468.545319 
	C315.803284,465.738281 320.328491,463.179779 324.072449,459.764771 
	C335.888550,448.986786 347.911255,438.365509 358.953522,426.822174 
	C390.281006,394.072906 421.107727,360.845123 452.257874,327.925232 
	C459.572540,320.195007 467.186066,312.713440 475.112854,305.621307 
	C477.026398,303.909271 480.734253,304.202698 484.593964,303.360809 
	C486.142822,313.991577 482.374634,321.803345 478.783234,329.507721 
	C473.719452,340.370819 468.044220,350.950470 463.050934,361.844055 
	C461.238373,365.798553 460.634766,370.307190 458.481384,378.240143 
	C465.076355,373.440674 469.074524,371.369598 471.980316,368.273376 
	C485.659698,353.697327 498.826477,338.637787 512.593506,324.147308 
	C523.598206,312.564331 534.740967,301.027161 546.711670,290.478851 
	C554.116577,283.953918 562.814880,278.604065 571.610962,274.031952 
	C580.640625,269.338409 590.520874,267.753815 600.526184,272.271454 
	C607.815918,275.562927 610.596619,281.359253 606.480347,288.405975 
	C602.142883,295.831390 596.774536,302.707703 591.411682,309.471069 
	C576.098999,328.782623 560.560364,347.914978 543.546387,369.532349 
M7728.457520,294.182617 
	C7723.618164,311.968109 7715.785645,328.916321 7711.869141,350.958740 
	C7749.250000,324.644806 7782.984375,298.994476 7816.721680,275.384247 
	C7819.074219,276.030884 7819.834961,276.042877 7820.342285,276.407532 
	C7850.625000,298.164825 7880.881348,319.958313 7911.159668,341.721130 
	C7913.858398,343.660431 7916.665527,345.453979 7919.481445,347.220459 
	C7919.987793,347.538025 7920.804688,347.518402 7921.441406,347.420471 
	C7921.926758,347.345947 7922.354980,346.900482 7923.864746,345.966461 
	C7923.101562,343.237122 7922.348145,340.137115 7921.370605,337.109161 
	C7910.947754,304.806305 7900.432129,272.533173 7890.102539,240.200333 
	C7888.536133,235.297241 7887.794434,230.130524 7886.573242,224.644379 
	C7893.161133,219.795166 7899.004883,215.446442 7904.897461,211.164963 
	C7930.764648,192.368881 7956.686035,173.645584 7982.452148,154.711639 
	C7984.627930,153.112991 7989.152832,152.287186 7986.670410,146.262695 
	C7973.286621,146.262695 7959.430664,146.262695 7945.575195,146.262695 
	C7930.916504,146.262680 7916.250488,146.545288 7901.600586,146.180786 
	C7887.790039,145.837158 7873.809570,147.986969 7859.094238,144.228531 
	C7845.851074,103.917656 7832.610840,63.615173 7818.415527,20.406797 
	C7815.399414,28.450937 7813.372559,33.317108 7811.735352,38.311050 
	C7801.160156,70.568321 7790.719238,102.869476 7780.083496,135.106873 
	C7778.895020,138.710327 7776.764648,142.003006 7774.665039,146.262680 
	C7753.557129,146.262680 7732.960449,145.996490 7712.374023,146.336624 
	C7691.281250,146.685120 7670.093262,144.791122 7646.423828,147.814636 
	C7651.726562,152.374191 7654.906250,155.506561 7658.471191,158.110565 
	C7684.828613,177.364502 7711.290527,196.475769 7737.645996,215.732117 
	C7741.857422,218.809250 7745.704102,222.384979 7750.546387,226.418594 
	C7743.416016,248.301727 7736.431152,269.739471 7728.457520,294.182617 
M7160.871582,344.181519 
	C7151.928223,315.642151 7142.996094,287.099182 7134.035645,258.565094 
	C7130.676758,247.868942 7127.251465,237.193481 7123.547852,225.536346 
	C7157.844727,199.586273 7192.841309,175.598892 7229.033203,147.977783 
	C7221.576172,147.188766 7217.220703,146.342865 7212.862305,146.328003 
	C7179.576660,146.214600 7146.290527,146.327957 7113.005859,146.193390 
	C7107.861816,146.172607 7102.721680,145.245789 7097.512207,144.731323 
	C7095.220215,138.059601 7093.224121,132.465836 7091.373047,126.824577 
	C7081.008301,95.234245 7070.685059,63.630344 7060.323730,32.039047 
	C7059.367676,29.124168 7059.293945,25.179750 7053.832520,26.370399 
	C7039.963379,65.411430 7028.831543,105.708168 7014.311035,145.094681 
	C6992.053223,147.484894 6970.802734,145.674149 6949.622070,146.274216 
	C6928.591309,146.870010 6907.460938,144.881927 6883.036133,147.819916 
	C6919.292480,175.507553 6954.294922,199.387848 6988.278809,225.303253 
	C6987.235352,229.297379 6986.573730,232.466736 6985.582031,235.529312 
	C6974.927734,268.430542 6964.167969,301.297882 6953.594238,334.225006 
	C6952.290039,338.287933 6949.194824,342.583954 6953.914062,347.790833 
	C6988.346680,324.373657 7021.108398,298.430359 7055.919922,274.862244 
	C7061.138184,278.337830 7065.610352,281.106445 7069.860352,284.181915 
	C7094.663086,302.128845 7119.357910,320.226685 7144.233398,338.073364 
	C7148.981934,341.480042 7154.373535,343.991241 7160.871582,344.181519 
M7358.815430,260.276947 
	C7349.889160,288.145905 7340.941406,316.008026 7332.134277,343.914734 
	C7331.855957,344.795074 7333.026367,346.132355 7333.914551,348.150085 
	C7338.959473,344.801849 7343.986816,341.709900 7348.755371,338.259979 
	C7374.658203,319.519623 7400.463867,300.644531 7426.395996,281.945618 
	C7430.009766,279.339325 7434.141113,277.451660 7438.247559,275.109253 
	C7455.682617,287.720184 7472.294922,299.940948 7489.125977,311.852448 
	C7506.382812,324.066101 7522.711426,337.658875 7543.848633,350.210999 
	C7531.832031,306.389313 7516.446289,266.899475 7504.936035,225.172119 
	C7522.486328,212.339066 7539.773926,200.004623 7556.721680,187.219849 
	C7573.442871,174.605743 7591.545410,163.731247 7609.116211,147.358215 
	C7601.123535,146.879379 7595.990234,146.318466 7590.855957,146.305511 
	C7558.210938,146.223129 7525.566406,146.292526 7492.921387,146.228851 
	C7487.695801,146.218674 7482.135742,147.227417 7477.175781,141.967667 
	C7471.118652,123.279999 7465.013184,103.584259 7458.335938,84.084465 
	C7451.608398,64.438087 7446.540039,44.171795 7437.153809,22.326914 
	C7434.505371,28.674860 7432.773438,32.148438 7431.577148,35.797531 
	C7421.002441,68.046577 7410.565430,100.340561 7399.966309,132.581360 
	C7398.556152,136.870285 7396.463867,140.934906 7394.485840,145.576401 
	C7387.147461,145.822495 7380.571289,146.220276 7373.994141,146.233627 
	C7341.349121,146.299942 7308.704590,146.228485 7276.059570,146.327591 
	C7273.122559,146.336502 7270.188477,147.216843 7264.050781,148.211273 
	C7283.814941,162.652115 7301.026367,175.029236 7318.019043,187.699753 
	C7334.992188,200.356079 7353.024902,211.662491 7369.360840,226.464142 
	C7366.045410,237.047607 7362.882324,247.143326 7358.815430,260.276947 
M7154.194336,663.670105 
	C7150.134766,678.041138 7143.571777,691.750427 7140.984863,709.971985 
	C7160.752930,695.700134 7177.885254,683.164001 7195.197266,670.880554 
	C7212.446777,658.641052 7228.874512,645.177124 7247.837402,633.924988 
	C7265.062012,646.372803 7281.747559,658.447144 7298.450195,670.497742 
	C7315.649902,682.906372 7332.864746,695.292358 7352.886719,709.714783 
	C7351.279297,701.898865 7350.770508,697.457031 7349.440430,693.276428 
	C7339.351074,661.548889 7329.076172,629.880127 7318.930176,598.170471 
	C7317.546875,593.845825 7316.558594,589.394714 7315.220703,584.377014 
	C7320.992188,579.944702 7326.126465,575.822937 7331.441406,571.949768 
	C7358.372070,552.324646 7385.355957,532.772461 7412.301758,513.168579 
	C7414.917969,511.265167 7418.085938,509.472046 7415.081055,504.403870 
	C7373.712402,504.403870 7331.795898,504.403870 7289.280273,504.403870 
	C7287.173340,498.930328 7285.080078,494.127350 7283.457031,489.170197 
	C7272.889160,456.894409 7262.483398,424.565247 7251.830566,392.317566 
	C7250.776855,389.126648 7248.416992,386.366882 7245.746094,381.859467 
	C7232.050781,423.745026 7219.052734,463.496887 7205.848633,503.879578 
	C7199.089844,504.241119 7193.219727,504.680237 7187.341797,504.834564 
	C7181.346680,504.992065 7175.343750,504.869751 7169.344238,504.869812 
	C7163.344727,504.869873 7157.345215,504.869812 7151.345703,504.869812 
	C7144.679688,504.869812 7138.013184,504.869812 7131.347168,504.869812 
	C7125.347656,504.869812 7119.348145,504.869751 7113.348633,504.869843 
	C7107.349121,504.869934 7101.347656,504.781250 7095.350098,504.895935 
	C7089.613281,505.005707 7083.764648,504.325958 7078.270996,505.592987 
	C7077.789062,512.934326 7083.341309,514.010742 7086.726562,516.502502 
	C7113.562500,536.255859 7140.599609,555.735413 7167.488770,575.417480 
	C7171.668457,578.477478 7175.405762,582.142395 7179.432617,585.600952 
	C7171.153809,611.283386 7163.196777,635.968140 7154.194336,663.670105 
M7715.642090,569.607239 
	C7741.496094,550.811523 7767.359863,532.029480 7793.188965,513.199219 
	C7795.751465,511.330750 7799.052246,509.562622 7796.104980,504.870392 
	C7759.840332,504.870392 7723.243164,504.915253 7686.645996,504.824524 
	C7680.809082,504.810059 7674.973145,504.187012 7669.412598,503.861511 
	C7667.239258,497.462860 7665.472656,492.445099 7663.826660,487.387909 
	C7653.120117,454.488922 7642.436523,421.582306 7631.756836,388.674377 
	C7630.917969,386.089325 7629.989746,383.706451 7625.759277,384.822632 
	C7612.917480,424.118896 7599.945801,463.814331 7586.649902,504.499969 
	C7577.288574,504.630951 7568.718262,504.798157 7560.146973,504.857574 
	C7551.488281,504.917633 7542.829102,504.870819 7534.169922,504.870819 
	C7526.177246,504.870819 7518.184082,504.870819 7510.191406,504.870819 
	C7501.532227,504.870819 7492.873047,504.807129 7484.214355,504.888977 
	C7475.820312,504.968353 7467.376953,504.499023 7459.385254,505.233215 
	C7457.986816,512.189270 7463.091309,513.109375 7465.895020,515.174988 
	C7493.238281,535.316101 7520.794434,555.168274 7548.216309,575.203674 
	C7552.398438,578.259094 7556.204590,581.829834 7560.366211,585.315063 
	C7547.577148,625.444946 7535.066895,664.684021 7522.608398,703.939575 
	C7522.446777,704.447754 7522.828125,705.245789 7523.173828,705.761414 
	C7523.470215,706.202087 7524.080566,706.431091 7525.548340,707.435791 
	C7536.436035,699.593201 7547.695801,691.513733 7558.921875,683.387939 
	C7570.790039,674.797668 7582.458984,665.920532 7594.524902,657.619141 
	C7605.889648,649.800415 7615.951172,639.889648 7629.448242,634.431030 
	C7663.993652,658.654907 7697.174316,684.050293 7735.443359,710.626221 
	C7728.928711,685.942688 7721.579102,666.265686 7715.403320,646.279480 
	C7709.146973,626.030212 7702.373535,605.940796 7695.525391,584.855286 
	C7701.847656,580.076416 7707.604004,575.725525 7715.642090,569.607239 
z"/>
<path fill="#A31700" opacity="1.000000" stroke="none" 
	d="
M11.890078,2672.371582 
	C11.826393,2682.066650 11.969295,2691.395508 11.969573,2700.724365 
	C11.982515,3133.899902 11.983049,3567.075195 11.992504,4002.125488 
	C9.336820,4004.000000 6.673639,4004.000000 4.005229,4004.000000 
	C4.000000,3561.249756 4.000000,3118.499512 5.393329,2673.802734 
	C8.633162,2671.663818 10.479667,2671.471191 12.326181,2671.278809 
	C12.326191,2671.278809 12.030132,2672.005127 11.890078,2672.371582 
z"/>
<path fill="#BA8036" opacity="1.000000" stroke="none" 
	d="
M6.000000,4.000000 
	C7.898571,11.324460 7.708620,18.648916 7.708377,25.973379 
	C7.694180,454.924133 7.693854,883.874939 7.711221,1312.825684 
	C7.711518,1320.148804 7.944334,1327.471924 7.153496,1337.119019 
	C5.492228,1339.628784 4.746114,1339.814453 4.000000,1340.000000 
	C4.000000,894.666687 4.000000,449.333344 6.000000,4.000000 
z"/>
<path fill="#150700" opacity="1.000000" stroke="none" 
	d="
M12.231675,2669.462402 
	C10.479667,2671.471191 8.633162,2671.663818 5.393329,2671.928223 
	C4.000000,2450.583008 4.000000,2229.166260 5.327320,2005.886475 
	C8.423958,2004.027710 10.193274,2004.031616 11.962592,2004.035645 
	C11.975655,2216.578125 11.987149,2429.120605 12.007435,2641.663086 
	C12.008262,2650.324219 12.092046,2658.985352 12.231675,2669.462402 
z"/>
<path fill="#000913" opacity="1.000000" stroke="none" 
	d="
M11.970634,2002.157471 
	C10.193274,2004.031616 8.423958,2004.027710 5.327320,2004.011841 
	C4.000000,1783.916382 4.000000,1563.832886 4.000000,1341.874634 
	C4.746114,1339.814453 5.492228,1339.628784 7.249006,1338.887573 
	C8.913780,1338.550537 9.567892,1338.768799 11.127304,1339.488281 
	C12.014627,1560.085938 11.996652,1780.182617 11.970634,2002.157471 
z"/>
<path fill="#050401" opacity="1.000000" stroke="none" 
	d="
M544.328491,368.325073 
	C560.560364,347.914978 576.098999,328.782623 591.411682,309.471069 
	C596.774536,302.707703 602.142883,295.831390 606.480347,288.405975 
	C610.596619,281.359253 607.815918,275.562927 600.526184,272.271454 
	C590.520874,267.753815 580.640625,269.338409 571.610962,274.031952 
	C562.814880,278.604065 554.116577,283.953918 546.711670,290.478851 
	C534.740967,301.027161 523.598206,312.564331 512.593506,324.147308 
	C498.826477,338.637787 485.659698,353.697327 471.980316,368.273376 
	C469.074524,371.369598 465.076355,373.440674 458.481384,378.240143 
	C460.634766,370.307190 461.238373,365.798553 463.050934,361.844055 
	C468.044220,350.950470 473.719452,340.370819 478.783234,329.507721 
	C482.374634,321.803345 486.142822,313.991577 484.593964,303.360809 
	C480.734253,304.202698 477.026398,303.909271 475.112854,305.621307 
	C467.186066,312.713440 459.572540,320.195007 452.257874,327.925232 
	C421.107727,360.845123 390.281006,394.072906 358.953522,426.822174 
	C347.911255,438.365509 335.888550,448.986786 324.072449,459.764771 
	C320.328491,463.179779 315.803284,465.738281 311.838196,468.545319 
	C308.059143,465.091217 310.535767,462.750519 311.692383,460.832184 
	C319.256439,448.286560 326.606689,435.576202 334.859467,423.488190 
	C362.665466,382.760101 390.901276,342.325714 418.784393,301.649933 
	C425.933838,291.220306 432.639923,280.462311 439.045349,269.558868 
	C441.700104,265.039948 443.191803,259.796936 444.873260,254.769775 
	C445.440979,253.072418 444.963135,251.025375 444.963135,249.656815 
	C440.551086,245.706223 436.455536,247.312485 433.573761,249.706558 
	C424.385071,257.340149 414.909576,264.848877 406.909180,273.646515 
	C390.324371,291.884033 374.436676,310.768311 358.588776,329.660431 
	C326.890198,367.447968 295.773712,405.730347 263.679596,443.176483 
	C248.961395,460.349152 232.764557,476.293396 216.717026,492.271179 
	C208.881195,500.072937 200.267212,507.321320 189.931351,511.062958 
	C186.226166,507.803375 188.009888,505.211853 189.403793,503.262817 
	C194.827576,495.679047 200.482361,488.256104 206.186615,480.878021 
	C262.063721,408.604553 314.360352,333.785614 364.769806,257.631805 
	C369.905365,249.873444 374.234497,241.575287 378.770020,233.434128 
	C379.284119,232.511261 378.703796,230.978683 378.627716,229.673889 
	C376.074127,226.880539 373.539154,228.786942 371.836304,230.401459 
	C361.692108,240.019272 351.274261,249.417267 341.852631,259.716339 
	C303.105499,302.072113 268.970642,348.158447 234.245026,393.763855 
	C197.873367,441.531097 159.881546,487.962036 117.146797,530.229675 
	C101.540375,545.665466 85.020660,560.308228 67.872391,574.004211 
	C58.120823,581.792603 46.308258,587.028259 35.298111,593.188843 
	C33.181725,594.373047 30.480059,594.511353 28.595226,594.992554 
	C25.030621,591.779724 26.771931,589.128723 28.288071,587.360413 
	C33.913795,580.799011 39.428410,574.017517 45.844849,568.280701 
	C71.334488,545.490906 93.393417,519.610901 113.370537,492.082764 
	C155.639160,433.837250 197.359573,375.190460 238.928207,316.441742 
	C263.946930,281.082886 287.889252,244.957031 315.723328,211.664124 
	C353.462555,166.523407 394.614685,124.903503 441.398041,89.022614 
	C480.148712,59.302444 523.130310,39.337933 571.502258,31.170034 
	C636.445496,20.203960 697.419495,31.119680 754.639160,63.506630 
	C782.102295,79.051041 806.383240,98.727249 828.496765,121.122009 
	C834.491333,127.192772 840.872192,133.169968 842.844543,141.690430 
	C840.800171,145.892487 837.551270,146.405502 834.170044,145.602646 
	C827.705078,144.067581 821.244995,142.422302 814.924622,140.383347 
	C788.546570,131.873627 761.524841,129.661530 733.982849,131.169128 
	C720.683716,131.897110 709.341064,136.664413 699.781372,145.622971 
	C693.958191,151.079987 688.641113,157.080399 683.144653,162.882126 
	C665.877808,181.107910 666.511902,202.518616 672.434326,224.718109 
	C673.521423,228.792908 676.831238,231.526001 681.188354,231.869995 
	C697.283752,233.140732 713.226318,232.199738 728.453064,226.404388 
	C737.987549,222.775513 739.750183,216.798111 734.718933,207.384094 
	C732.895142,203.971558 730.638855,200.790115 728.910400,198.030746 
	C731.232605,192.127106 735.559875,192.368774 739.315308,193.100723 
	C753.040771,195.775909 766.653992,199.023315 780.367859,201.763199 
	C787.529175,203.193970 794.785034,204.324081 802.053345,204.962799 
	C805.004456,205.222107 808.102173,203.813507 811.071533,203.177048 
	C812.795044,192.889313 802.668884,189.018784 801.400513,179.772980 
	C806.392822,180.533829 811.148560,180.354553 815.115479,182.036148 
	C826.132690,186.706360 837.116760,191.618713 847.569214,197.417374 
	C862.125549,205.492783 876.105164,214.600616 890.493713,222.988495 
	C897.963318,227.342896 905.635376,231.423492 913.511475,234.971786 
	C916.809265,236.457520 920.873718,236.241425 925.311096,236.907318 
	C926.639282,229.269333 924.088806,223.828384 921.788513,218.590805 
	C914.024902,200.913589 905.979919,183.359009 897.945435,165.801971 
	C891.572083,151.874786 884.968262,138.052551 878.658142,124.097168 
	C876.798096,119.983376 875.589966,115.574821 874.094788,111.334511 
	C879.325012,108.648598 880.823425,112.668320 882.464294,114.778290 
	C892.688110,127.924538 902.587891,141.322281 912.652161,154.593338 
	C925.936646,172.110718 939.072876,189.746765 952.694641,206.998795 
	C957.617798,213.233932 963.596008,218.681580 969.427124,224.130859 
	C971.647095,226.205444 974.805115,227.276276 979.387451,229.841080 
	C980.046570,224.920853 981.223267,221.836899 980.693176,219.081268 
	C978.684631,208.639984 976.519348,198.195251 973.680908,187.954620 
	C968.701904,169.990494 963.123413,152.193176 957.949158,134.281769 
	C957.064575,131.219788 956.941772,127.937737 956.384338,124.203613 
	C963.841248,125.893433 964.641479,131.882034 966.847534,136.285309 
	C973.110107,148.784958 978.267273,161.853867 984.808960,174.195526 
	C1011.787476,225.093979 1044.981445,271.645569 1083.780151,314.229431 
	C1096.345825,328.021027 1108.829712,341.899384 1120.952637,356.078735 
	C1134.411621,371.820801 1146.108276,388.859894 1155.825317,407.175079 
	C1172.806152,439.181580 1197.775024,461.790131 1232.343018,473.596008 
	C1241.017822,476.558685 1250.555054,479.091949 1253.497314,489.780548 
	C1244.639648,509.404602 1221.004272,530.329895 1198.251709,538.653442 
	C1189.956421,534.938599 1185.983032,526.924072 1180.442871,520.370728 
	C1174.886963,513.798645 1169.246460,507.158447 1162.785400,501.533264 
	C1157.195679,496.666687 1150.025757,494.420959 1142.312622,495.065887 
	C1136.734863,495.532227 1132.250000,500.117676 1132.505371,505.687347 
	C1132.655640,508.965546 1133.198730,512.367371 1134.331421,515.430115 
	C1136.869507,522.291870 1139.460205,529.193848 1142.777710,535.697815 
	C1164.100586,577.501831 1190.183228,615.972290 1223.171265,649.567200 
	C1230.589722,657.122253 1237.744629,664.936218 1244.554321,672.137634 
	C1242.247681,679.111084 1237.808350,676.768860 1234.128052,676.742554 
	C1227.702271,676.696533 1220.063110,673.386047 1215.698242,680.296692 
	C1210.936523,687.835693 1216.609009,694.389954 1220.464844,700.295410 
	C1226.278442,709.199036 1232.538330,717.898682 1239.413696,726.001770 
	C1250.619995,739.208862 1262.406250,751.928345 1274.076172,764.736694 
	C1288.017456,780.037964 1301.153076,795.946899 1311.978638,813.652771 
	C1314.002930,816.963501 1316.259766,820.233521 1315.550049,826.374695 
	C1311.745117,824.258911 1308.891602,823.211731 1306.702148,821.373596 
	C1275.022705,794.777466 1244.823486,766.582397 1216.623901,736.318115 
	C1199.631714,718.081665 1186.717773,697.070251 1178.151978,673.671997 
	C1169.224731,649.286804 1161.065186,624.619873 1152.630615,600.055359 
	C1148.304321,587.456177 1144.245117,574.764282 1139.825806,562.198425 
	C1132.166260,540.419556 1119.896606,521.626099 1102.855591,505.982269 
	C1089.573364,493.789154 1075.882202,482.122131 1060.035156,473.319611 
	C1052.396851,469.076691 1044.365967,465.774933 1035.363281,466.389740 
	C1024.304443,467.144958 1018.710205,475.708160 1022.611511,485.972992 
	C1027.407715,498.592346 1036.533813,507.471069 1049.064331,511.526367 
	C1074.809082,519.858398 1090.867554,538.704590 1105.570923,559.469360 
	C1094.096069,571.167969 1082.443970,577.956848 1060.726685,584.934570 
	C1050.874023,588.100159 1041.083130,592.947693 1028.947998,589.785156 
	C1030.994507,584.738464 1032.608765,580.510010 1034.409302,576.362488 
	C1040.636108,562.019592 1038.467407,548.586243 1028.257324,537.302856 
	C1021.189697,529.492432 1013.028137,522.263611 1004.201233,516.561707 
	C994.204224,510.104065 982.951416,505.573486 972.179016,500.340027 
	C966.192078,497.431396 959.969788,494.998901 954.033875,491.995544 
	C944.001648,486.919678 936.743591,479.828247 936.154114,467.561615 
	C935.559509,455.187897 927.695312,446.914307 918.855408,439.509247 
	C912.729736,434.377869 906.077148,429.858093 900.118286,424.550476 
	C895.262329,420.225220 889.632080,416.151703 888.705261,407.864288 
	C893.223206,407.636871 897.537109,407.419739 903.012939,407.144135 
	C901.506042,395.364227 898.175171,383.765961 909.537903,374.914764 
	C906.517761,370.436340 904.624573,366.052582 901.406616,363.124969 
	C885.915588,349.031555 868.982910,337.779785 847.188782,335.639740 
	C840.786072,335.011017 833.773193,333.058258 828.573059,329.482727 
	C820.737366,324.095062 812.721252,322.876343 803.948669,324.076508 
	C789.869080,326.002716 776.122498,325.815826 762.637085,320.449707 
	C755.992310,317.805634 749.515381,319.126404 743.963074,323.917633 
	C742.953979,324.788391 741.855774,325.569275 740.925598,326.516266 
	C730.852417,336.770844 719.110107,340.910400 704.602112,338.137024 
	C697.064880,336.696228 693.634766,340.115112 692.474487,347.656403 
	C691.969177,350.940613 691.927734,354.295837 691.668335,357.618225 
	C690.873230,367.802460 685.574524,374.985992 676.825317,379.860687 
	C675.079041,380.833649 673.400818,382.012299 671.542847,382.687805 
	C659.030334,387.236969 654.067200,396.308105 655.487976,409.221161 
	C657.453369,427.083618 659.087524,444.996582 661.675781,462.769623 
	C662.716553,469.916809 665.394043,476.968781 668.235291,483.679352 
	C673.347656,495.753906 682.815552,502.471375 695.984314,503.391266 
	C701.287170,503.761688 706.673462,503.819458 711.962280,503.349426 
	C730.500183,501.702026 747.631775,506.347870 764.086304,514.360046 
	C771.872070,518.151184 779.514221,522.273499 787.462708,525.683472 
	C794.693420,528.785522 802.250671,531.126526 808.737915,533.468689 
	C813.665405,530.159241 813.217590,526.517212 811.542358,523.805298 
	C807.019836,516.483887 802.558289,508.937927 796.859131,502.566345 
	C781.567688,485.470581 763.142761,472.540985 742.112000,463.161407 
	C733.034912,459.113037 724.441406,453.934387 715.825256,448.930054 
	C713.654541,447.669312 712.044922,445.236877 710.577637,443.071686 
	C709.989502,442.203766 710.480835,440.604309 710.480835,439.051208 
	C713.571350,434.427643 718.723877,435.531860 723.013733,435.978455 
	C737.587280,437.495605 745.225830,430.402466 749.381714,417.194977 
	C751.561218,410.268433 754.901550,403.620941 758.386353,397.210999 
	C763.913818,387.043640 771.721497,378.851105 782.295715,373.815674 
	C794.602478,367.955292 806.545288,367.563049 818.583740,377.868439 
	C816.069092,380.408020 814.276855,383.101593 811.766907,384.560608 
	C807.180969,387.226349 801.800659,388.611938 797.435669,391.548279 
	C792.578308,394.815765 787.732849,398.649994 784.243408,403.266388 
	C779.626648,409.374298 783.831299,417.166840 791.546936,417.590210 
	C796.163635,417.843536 800.830383,417.061584 805.479858,416.870514 
	C813.463196,416.542328 821.466064,415.868469 829.432617,416.146149 
	C841.113342,416.553284 851.271423,420.791260 860.841125,430.809082 
	C856.165955,432.019989 853.249451,433.046448 850.247070,433.485840 
	C846.299377,434.063568 842.245911,433.935974 838.307312,434.553955 
	C833.157349,435.362061 826.538147,435.003540 824.821838,441.103912 
	C823.065491,447.346802 828.797485,450.308868 833.236511,453.217987 
	C836.576782,455.406982 840.188965,457.189178 843.474243,459.451294 
	C846.197449,461.326355 848.860229,463.410675 851.124695,465.804413 
	C855.471252,470.399109 853.786011,476.592346 847.702576,478.335999 
	C842.723328,479.763184 837.600525,480.689636 833.359985,481.652252 
	C830.353516,487.777893 831.929077,492.261383 835.233582,495.727386 
	C840.716431,501.478088 846.284180,507.380402 852.728760,511.924652 
	C861.405640,518.042969 870.821167,523.164124 880.144958,528.304688 
	C902.399597,540.574463 923.426025,554.624390 942.588440,571.317932 
	C949.461365,577.305420 956.909363,583.123108 960.291077,593.643005 
	C950.926636,598.999268 941.145020,599.101257 931.408508,599.781616 
	C916.153259,600.847534 900.881165,601.929565 885.705505,603.749329 
	C879.885315,604.447205 874.183044,606.882385 868.689392,609.159119 
	C866.638672,610.008972 865.335693,612.662964 862.817871,615.467957 
	C865.968933,617.322021 867.961548,619.297729 870.234314,619.703125 
	C886.616211,622.625732 903.010254,625.547241 919.485474,627.864929 
	C947.847778,631.854919 976.171997,635.769714 1003.772888,643.894165 
	C1063.023193,661.335022 1110.363892,695.048218 1143.907349,747.036072 
	C1155.066772,764.331604 1164.696289,782.714600 1173.831909,801.190430 
	C1185.173584,824.128113 1190.772095,848.776123 1192.177490,874.372192 
	C1193.091064,891.007874 1194.408813,907.621155 1195.352783,924.255432 
	C1195.638306,929.283875 1195.279053,934.348938 1195.166870,943.199524 
	C1182.019409,926.876221 1183.196533,905.347412 1163.973633,896.250854 
	C1161.014893,900.265930 1157.524536,903.483276 1155.956543,907.458801 
	C1153.035767,914.863953 1151.058350,922.663513 1148.994873,930.380798 
	C1136.575562,976.826477 1120.157593,1021.837158 1100.446777,1065.655884 
	C1096.898926,1073.542847 1092.734375,1081.156616 1088.746094,1088.840088 
	C1085.030518,1095.998291 1079.553223,1101.587769 1073.466431,1106.588745 
	C1068.429443,1103.744873 1071.550903,1100.452759 1072.037842,1097.775635 
	C1075.132324,1080.762573 1078.637085,1063.822876 1081.610107,1046.789795 
	C1082.377319,1042.394287 1081.725342,1037.751099 1081.725342,1031.620972 
	C1076.419678,1032.387451 1072.460083,1032.139893 1069.244995,1033.568115 
	C1056.466309,1039.244873 1043.912720,1045.429932 1031.289307,1051.454956 
	C1012.049866,1060.637573 992.792419,1069.782959 973.594788,1079.052246 
	C933.022034,1098.642212 889.746521,1104.255005 845.325500,1103.973633 
	C844.913940,1103.971069 844.506958,1103.253662 843.051575,1101.889038 
	C848.246643,1096.685303 855.111023,1094.231812 860.805603,1090.205444 
	C866.760376,1085.994995 872.780029,1081.791016 878.211792,1076.955688 
	C881.862549,1073.705811 881.739441,1067.448242 878.073914,1064.377197 
	C873.528687,1060.569092 868.629639,1056.843750 863.281738,1054.398804 
	C848.756836,1047.758301 834.022034,1041.540771 819.172913,1035.653809 
	C796.263062,1026.571289 773.106445,1018.109497 750.220886,1008.967896 
	C739.724731,1004.775146 729.550415,999.742310 719.392456,994.759521 
	C716.633606,993.406250 714.465393,990.848755 710.822754,987.854980 
	C717.212585,981.450256 728.461243,986.175415 731.700439,975.755249 
	C730.936584,968.974670 725.788696,963.540344 721.003662,958.158264 
	C696.653809,930.769897 672.895569,902.794556 647.434570,876.471375 
	C618.257629,846.306519 587.653992,817.511230 557.388550,788.413879 
	C540.795959,772.461609 521.213379,761.355164 499.051880,754.836365 
	C461.259033,743.719543 430.243896,757.890381 410.217926,787.305359 
	C393.636169,811.661438 389.094543,839.224548 393.397400,867.666809 
	C403.009308,931.202576 435.419189,979.480103 494.044220,1007.550232 
	C547.043823,1032.927002 602.810852,1051.141113 659.509949,1066.403320 
	C665.899292,1068.123291 672.586670,1068.774780 679.165527,1069.714722 
	C680.307678,1069.877930 681.598083,1069.003418 684.335449,1068.117920 
	C684.424622,1065.620850 685.468506,1062.214478 684.459717,1059.600098 
	C681.842407,1052.816528 678.443359,1046.319336 675.129272,1039.823730 
	C671.532471,1032.773926 667.679260,1025.854736 662.891113,1016.926819 
	C667.789856,1016.788757 671.336487,1015.579895 673.396301,1016.827026 
	C681.345154,1021.639526 689.169983,1026.799805 696.408813,1032.617188 
	C726.200317,1056.559082 751.628662,1084.811279 774.888428,1114.928833 
	C793.207520,1138.649170 810.682617,1163.048462 827.861450,1187.615356 
	C851.168274,1220.945923 874.728210,1254.044189 900.957336,1285.185181 
	C908.136780,1293.709106 916.268860,1301.885986 919.068420,1315.197754 
	C914.296997,1314.572266 910.125488,1315.059937 907.066895,1313.442749 
	C894.723816,1306.916138 882.196228,1300.512695 870.698303,1292.656616 
	C838.788757,1270.854126 807.356201,1248.353149 775.743164,1226.116943 
	C745.714417,1204.994995 714.516113,1185.861694 681.180176,1170.345459 
	C659.994873,1160.484741 638.274719,1152.295166 615.437988,1146.905273 
	C607.430176,1145.015137 598.048889,1145.022949 591.369812,1136.360352 
	C593.583008,1134.638672 595.308716,1132.227905 597.400635,1131.851196 
	C607.183350,1130.089722 617.028198,1128.420288 626.923950,1127.600830 
	C640.861877,1126.446533 654.874573,1126.223145 668.833252,1125.276367 
	C673.447815,1124.963135 678.153137,1124.099365 682.501160,1122.582397 
	C684.530273,1121.874390 686.409180,1119.226440 687.194824,1117.040405 
	C687.653259,1115.764771 686.288269,1112.900269 684.933655,1112.066772 
	C678.729126,1108.249146 672.580017,1103.910156 665.787842,1101.557495 
	C643.781921,1093.935425 621.661377,1086.552124 599.289062,1080.103271 
	C569.858643,1071.619873 540.113708,1064.233765 510.576202,1056.112915 
	C500.954254,1053.467529 491.512573,1050.132935 482.067261,1046.884521 
	C429.429657,1028.781616 390.796936,993.113892 359.378967,948.562134 
	C349.627136,934.733582 343.471771,919.131775 341.099121,902.480469 
	C335.513855,863.282898 335.399902,824.077698 343.917328,785.193848 
	C345.618805,777.426270 348.169647,769.782959 350.991821,762.333435 
	C362.868561,730.983459 385.178284,710.389282 416.917664,700.186218 
	C444.584717,691.292175 473.069702,689.087280 501.877350,692.049072 
	C516.650696,693.567993 530.508606,698.871704 542.950745,706.771362 
	C557.545532,716.037659 572.055298,725.661438 585.438293,736.559204 
	C604.546082,752.118652 622.758484,768.797058 641.064819,785.317200 
	C677.680969,818.360657 713.925903,851.817017 750.670532,884.716003 
	C771.548828,903.409119 793.998718,920.132751 817.851990,934.936462 
	C853.265869,956.914856 891.696716,968.263733 933.429565,968.433228 
	C952.779480,968.511719 972.150879,968.766968 991.122803,964.265808 
	C1000.167114,962.120056 1009.248169,959.741760 1017.901184,956.402710 
	C1051.412476,943.471375 1070.389404,918.463623 1075.488403,883.344727 
	C1079.900391,852.957520 1075.320679,823.478821 1062.315430,795.603394 
	C1059.270508,789.076782 1054.815552,783.049194 1050.196045,777.464905 
	C1046.283081,772.734741 1040.487061,772.582642 1036.000977,776.708130 
	C1031.138916,781.179443 1026.916870,786.346802 1021.470520,792.232117 
	C1019.468872,789.866577 1016.874817,787.924805 1015.806824,785.349976 
	C1010.299744,772.073181 1001.638123,761.287048 990.610413,752.315247 
	C986.015869,748.577209 981.408508,744.537842 973.812378,745.144348 
	C970.120728,751.116455 971.856934,757.612549 973.465088,763.789062 
	C975.812866,772.806030 978.918152,781.622803 981.517944,790.577942 
	C983.151611,796.205444 985.676392,801.862976 982.030396,808.885498 
	C979.817627,807.899170 976.824585,807.519653 975.567993,805.840515 
	C969.999512,798.399658 964.634399,790.768433 959.742981,782.867310 
	C950.559937,768.033997 940.261475,754.121460 926.652222,743.099915 
	C920.494873,738.113342 913.698975,733.697327 906.629517,730.142700 
	C902.848877,728.241699 897.871216,728.721313 892.453247,727.995117 
	C891.745789,732.958069 890.213257,736.920837 890.851013,740.496521 
	C892.833374,751.610901 895.240356,762.687561 898.216675,773.578186 
	C902.954651,790.914551 908.363770,808.066467 913.301941,825.349915 
	C914.360657,829.055359 914.621094,832.988831 915.759033,839.923706 
	C911.221741,835.735291 908.395691,833.980469 906.759888,831.454773 
	C902.057129,824.193237 897.696960,816.698181 893.451477,809.154541 
	C881.667236,788.215942 868.759583,768.085876 853.596924,749.355225 
	C843.752686,737.194580 832.199524,727.512207 818.393860,720.378540 
	C777.435669,699.214783 734.680847,682.528870 690.442932,669.690857 
	C683.000671,667.531067 675.154724,665.215881 665.836365,667.796631 
	C666.070496,671.276489 665.538147,674.616089 666.609558,677.320190 
	C671.013611,688.435120 675.549316,699.527039 680.706909,710.306763 
	C687.314453,724.116882 694.673645,737.565735 701.449585,751.298218 
	C702.767334,753.968872 702.896301,757.226074 704.096008,762.515869 
	C698.451721,759.457581 694.830872,757.976868 691.750610,755.748779 
	C671.410522,741.035645 655.215637,722.503906 643.944946,700.165894 
	C631.651428,675.800659 620.545532,650.838684 608.725708,626.231140 
	C601.520752,611.231262 594.070374,596.344849 586.441040,581.556641 
	C584.717712,578.216370 581.792419,575.496155 579.866516,573.055786 
	C574.263550,573.262146 572.925476,576.464294 572.499878,579.691956 
	C571.455750,587.608948 570.750061,595.578430 570.158997,603.545349 
	C569.370117,614.178101 569.042175,624.849487 568.043091,635.459778 
	C567.694946,639.157288 565.940491,642.722351 564.975342,645.868408 
	C558.133545,646.607422 557.273621,642.073975 555.964539,638.651978 
	C548.767212,619.837341 545.048706,600.224182 543.657776,580.198792 
	C541.520447,549.428711 544.322632,518.947083 549.759521,488.662598 
	C552.585388,472.922424 555.627502,457.218231 558.213013,441.438995 
	C559.379822,434.318085 561.933594,425.287994 554.649963,421.154388 
	C545.763184,416.111023 540.003174,424.752228 535.052856,430.493896 
	C528.121155,438.533722 522.361328,447.578094 516.001099,456.118896 
	C513.008667,460.137146 509.785004,463.983185 504.900665,470.128540 
	C508.956879,430.922913 523.637329,399.210541 544.328491,368.325073 
M1131.615112,469.139465 
	C1132.486938,456.865417 1124.622559,449.831055 1115.884644,443.592163 
	C1106.491821,436.885559 1096.054199,433.249756 1084.295288,435.002197 
	C1077.651611,435.992279 1073.925171,441.992584 1076.704468,448.175903 
	C1083.881104,464.142303 1095.733276,474.844604 1113.220703,478.411011 
	C1120.168701,479.827972 1126.299927,478.169495 1131.615112,469.139465 
M1081.316650,384.786682 
	C1084.770996,383.801086 1087.275269,381.778473 1087.409180,378.002869 
	C1087.830566,366.124054 1076.914795,355.337555 1064.819458,355.514923 
	C1061.642090,355.561493 1058.881592,358.849548 1059.305542,362.301910 
	C1060.746094,374.033600 1067.618774,381.161621 1081.316650,384.786682 
z"/>
<path fill="#050301" opacity="1.000000" stroke="none" 
	d="
M7728.952148,292.679932 
	C7736.431152,269.739471 7743.416016,248.301727 7750.546387,226.418594 
	C7745.704102,222.384979 7741.857422,218.809250 7737.645996,215.732117 
	C7711.290527,196.475769 7684.828613,177.364502 7658.471191,158.110565 
	C7654.906250,155.506561 7651.726562,152.374191 7646.423828,147.814636 
	C7670.093262,144.791122 7691.281250,146.685120 7712.374023,146.336624 
	C7732.960449,145.996490 7753.557129,146.262680 7774.665039,146.262680 
	C7776.764648,142.003006 7778.895020,138.710327 7780.083496,135.106873 
	C7790.719238,102.869476 7801.160156,70.568321 7811.735352,38.311050 
	C7813.372559,33.317108 7815.399414,28.450937 7818.415527,20.406797 
	C7832.610840,63.615173 7845.851074,103.917656 7859.094238,144.228531 
	C7873.809570,147.986969 7887.790039,145.837158 7901.600586,146.180786 
	C7916.250488,146.545288 7930.916504,146.262680 7945.575195,146.262695 
	C7959.430664,146.262695 7973.286621,146.262695 7986.670410,146.262695 
	C7989.152832,152.287186 7984.627930,153.112991 7982.452148,154.711639 
	C7956.686035,173.645584 7930.764648,192.368881 7904.897461,211.164963 
	C7899.004883,215.446442 7893.161133,219.795166 7886.573242,224.644379 
	C7887.794434,230.130524 7888.536133,235.297241 7890.102539,240.200333 
	C7900.432129,272.533173 7910.947754,304.806305 7921.370605,337.109161 
	C7922.348145,340.137115 7923.101562,343.237122 7923.864746,345.966461 
	C7922.354980,346.900482 7921.926758,347.345947 7921.441406,347.420471 
	C7920.804688,347.518402 7919.987793,347.538025 7919.481445,347.220459 
	C7916.665527,345.453979 7913.858398,343.660431 7911.159668,341.721130 
	C7880.881348,319.958313 7850.625000,298.164825 7820.342285,276.407532 
	C7819.834961,276.042877 7819.074219,276.030884 7816.721680,275.384247 
	C7782.984375,298.994476 7749.250000,324.644806 7711.869141,350.958740 
	C7715.785645,328.916321 7723.618164,311.968109 7728.952148,292.679932 
z"/>
<path fill="#040301" opacity="1.000000" stroke="none" 
	d="
M7160.169922,345.548553 
	C7154.373535,343.991241 7148.981934,341.480042 7144.233398,338.073364 
	C7119.357910,320.226685 7094.663086,302.128845 7069.860352,284.181915 
	C7065.610352,281.106445 7061.138184,278.337830 7055.919922,274.862244 
	C7021.108398,298.430359 6988.346680,324.373657 6953.914062,347.790833 
	C6949.194824,342.583954 6952.290039,338.287933 6953.594238,334.225006 
	C6964.167969,301.297882 6974.927734,268.430542 6985.582031,235.529312 
	C6986.573730,232.466736 6987.235352,229.297379 6988.278809,225.303253 
	C6954.294922,199.387848 6919.292480,175.507553 6883.036133,147.819916 
	C6907.460938,144.881927 6928.591309,146.870010 6949.622070,146.274216 
	C6970.802734,145.674149 6992.053223,147.484894 7014.311035,145.094681 
	C7028.831543,105.708168 7039.963379,65.411430 7053.832520,26.370399 
	C7059.293945,25.179750 7059.367676,29.124168 7060.323730,32.039047 
	C7070.685059,63.630344 7081.008301,95.234245 7091.373047,126.824577 
	C7093.224121,132.465836 7095.220215,138.059601 7097.512207,144.731323 
	C7102.721680,145.245789 7107.861816,146.172607 7113.005859,146.193390 
	C7146.290527,146.327957 7179.576660,146.214600 7212.862305,146.328003 
	C7217.220703,146.342865 7221.576172,147.188766 7229.033203,147.977783 
	C7192.841309,175.598892 7157.844727,199.586273 7123.547852,225.536346 
	C7127.251465,237.193481 7130.676758,247.868942 7134.035645,258.565094 
	C7142.996094,287.099182 7151.928223,315.642151 7160.169922,345.548553 
z"/>
<path fill="#050301" opacity="1.000000" stroke="none" 
	d="
M7359.267578,258.757996 
	C7362.882324,247.143326 7366.045410,237.047607 7369.360840,226.464142 
	C7353.024902,211.662491 7334.992188,200.356079 7318.019043,187.699753 
	C7301.026367,175.029236 7283.814941,162.652115 7264.050781,148.211273 
	C7270.188477,147.216843 7273.122559,146.336502 7276.059570,146.327591 
	C7308.704590,146.228485 7341.349121,146.299942 7373.994141,146.233627 
	C7380.571289,146.220276 7387.147461,145.822495 7394.485840,145.576401 
	C7396.463867,140.934906 7398.556152,136.870285 7399.966309,132.581360 
	C7410.565430,100.340561 7421.002441,68.046577 7431.577148,35.797531 
	C7432.773438,32.148438 7434.505371,28.674860 7437.153809,22.326914 
	C7446.540039,44.171795 7451.608398,64.438087 7458.335938,84.084465 
	C7465.013184,103.584259 7471.118652,123.279999 7477.175781,141.967667 
	C7482.135742,147.227417 7487.695801,146.218674 7492.921387,146.228851 
	C7525.566406,146.292526 7558.210938,146.223129 7590.855957,146.305511 
	C7595.990234,146.318466 7601.123535,146.879379 7609.116211,147.358215 
	C7591.545410,163.731247 7573.442871,174.605743 7556.721680,187.219849 
	C7539.773926,200.004623 7522.486328,212.339066 7504.936035,225.172119 
	C7516.446289,266.899475 7531.832031,306.389313 7543.848633,350.210999 
	C7522.711426,337.658875 7506.382812,324.066101 7489.125977,311.852448 
	C7472.294922,299.940948 7455.682617,287.720184 7438.247559,275.109253 
	C7434.141113,277.451660 7430.009766,279.339325 7426.395996,281.945618 
	C7400.463867,300.644531 7374.658203,319.519623 7348.755371,338.259979 
	C7343.986816,341.709900 7338.959473,344.801849 7333.914551,348.150085 
	C7333.026367,346.132355 7331.855957,344.795074 7332.134277,343.914734 
	C7340.941406,316.008026 7349.889160,288.145905 7359.267578,258.757996 
z"/>
<path fill="#070502" opacity="1.000000" stroke="none" 
	d="
M7154.716797,662.161499 
	C7163.196777,635.968140 7171.153809,611.283386 7179.432617,585.600952 
	C7175.405762,582.142395 7171.668457,578.477478 7167.488770,575.417480 
	C7140.599609,555.735413 7113.562500,536.255859 7086.726562,516.502502 
	C7083.341309,514.010742 7077.789062,512.934326 7078.270996,505.592987 
	C7083.764648,504.325958 7089.613281,505.005707 7095.350098,504.895935 
	C7101.347656,504.781250 7107.349121,504.869934 7113.348633,504.869843 
	C7119.348145,504.869751 7125.347656,504.869812 7131.347168,504.869812 
	C7138.013184,504.869812 7144.679688,504.869812 7151.345703,504.869812 
	C7157.345215,504.869812 7163.344727,504.869873 7169.344238,504.869812 
	C7175.343750,504.869751 7181.346680,504.992065 7187.341797,504.834564 
	C7193.219727,504.680237 7199.089844,504.241119 7205.848633,503.879578 
	C7219.052734,463.496887 7232.050781,423.745026 7245.746094,381.859467 
	C7248.416992,386.366882 7250.776855,389.126648 7251.830566,392.317566 
	C7262.483398,424.565247 7272.889160,456.894409 7283.457031,489.170197 
	C7285.080078,494.127350 7287.173340,498.930328 7289.280273,504.403870 
	C7331.795898,504.403870 7373.712402,504.403870 7415.081055,504.403870 
	C7418.085938,509.472046 7414.917969,511.265167 7412.301758,513.168579 
	C7385.355957,532.772461 7358.372070,552.324646 7331.441406,571.949768 
	C7326.126465,575.822937 7320.992188,579.944702 7315.220703,584.377014 
	C7316.558594,589.394714 7317.546875,593.845825 7318.930176,598.170471 
	C7329.076172,629.880127 7339.351074,661.548889 7349.440430,693.276428 
	C7350.770508,697.457031 7351.279297,701.898865 7352.886719,709.714783 
	C7332.864746,695.292358 7315.649902,682.906372 7298.450195,670.497742 
	C7281.747559,658.447144 7265.062012,646.372803 7247.837402,633.924988 
	C7228.874512,645.177124 7212.446777,658.641052 7195.197266,670.880554 
	C7177.885254,683.164001 7160.752930,695.700134 7140.984863,709.971985 
	C7143.571777,691.750427 7150.134766,678.041138 7154.716797,662.161499 
z"/>
<path fill="#070402" opacity="1.000000" stroke="none" 
	d="
M7714.500977,570.490967 
	C7707.604004,575.725525 7701.847656,580.076416 7695.525391,584.855286 
	C7702.373535,605.940796 7709.146973,626.030212 7715.403320,646.279480 
	C7721.579102,666.265686 7728.928711,685.942688 7735.443359,710.626221 
	C7697.174316,684.050293 7663.993652,658.654907 7629.448242,634.431030 
	C7615.951172,639.889648 7605.889648,649.800415 7594.524902,657.619141 
	C7582.458984,665.920532 7570.790039,674.797668 7558.921875,683.387939 
	C7547.695801,691.513733 7536.436035,699.593201 7525.548340,707.435791 
	C7524.080566,706.431091 7523.470215,706.202087 7523.173828,705.761414 
	C7522.828125,705.245789 7522.446777,704.447754 7522.608398,703.939575 
	C7535.066895,664.684021 7547.577148,625.444946 7560.366211,585.315063 
	C7556.204590,581.829834 7552.398438,578.259094 7548.216309,575.203674 
	C7520.794434,555.168274 7493.238281,535.316101 7465.895020,515.174988 
	C7463.091309,513.109375 7457.986816,512.189270 7459.385254,505.233215 
	C7467.376953,504.499023 7475.820312,504.968353 7484.214355,504.888977 
	C7492.873047,504.807129 7501.532227,504.870819 7510.191406,504.870819 
	C7518.184082,504.870819 7526.177246,504.870819 7534.169922,504.870819 
	C7542.829102,504.870819 7551.488281,504.917633 7560.146973,504.857574 
	C7568.718262,504.798157 7577.288574,504.630951 7586.649902,504.499969 
	C7599.945801,463.814331 7612.917480,424.118896 7625.759277,384.822632 
	C7629.989746,383.706451 7630.917969,386.089325 7631.756836,388.674377 
	C7642.436523,421.582306 7653.120117,454.488922 7663.826660,487.387909 
	C7665.472656,492.445099 7667.239258,497.462860 7669.412598,503.861511 
	C7674.973145,504.187012 7680.809082,504.810059 7686.645996,504.824524 
	C7723.243164,504.915253 7759.840332,504.870392 7796.104980,504.870392 
	C7799.052246,509.562622 7795.751465,511.330750 7793.188965,513.199219 
	C7767.359863,532.029480 7741.496094,550.811523 7714.500977,570.490967 
z"/>
<path fill="#EEEEEE" opacity="1.000000" stroke="none" 
	d="
M1131.103882,470.560791 
	C1126.299927,478.169495 1120.168701,479.827972 1113.220703,478.411011 
	C1095.733276,474.844604 1083.881104,464.142303 1076.704468,448.175903 
	C1073.925171,441.992584 1077.651611,435.992279 1084.295288,435.002197 
	C1096.054199,433.249756 1106.491821,436.885559 1115.884644,443.592163 
	C1124.622559,449.831055 1132.486938,456.865417 1131.103882,470.560791 
z"/>
<path fill="#E3E3E3" opacity="1.000000" stroke="none" 
	d="
M1079.936279,384.786835 
	C1067.618774,381.161621 1060.746094,374.033600 1059.305542,362.301910 
	C1058.881592,358.849548 1061.642090,355.561493 1064.819458,355.514923 
	C1076.914795,355.337555 1087.830566,366.124054 1087.409180,378.002869 
	C1087.275269,381.778473 1084.770996,383.801086 1079.936279,384.786835 
z"/>
</svg>